<?xml version="1.0" encoding="UTF-8"?>
<svg xmlns="http://www.w3.org/2000/svg" xmlns:xlink="http://www.w3.org/1999/xlink" width="512pt" height="512pt" viewBox="0 0 512 512" version="1.1">
<g id="surface1">
<path style=" stroke:none;fill-rule:nonzero;fill:rgb(0%,0%,0%);fill-opacity:1;" d="M 256 0 C 114.636719 0 0 114.636719 0 256 C 0 397.363281 114.636719 512 256 512 C 397.363281 512 512 397.363281 512 256 C 512 114.636719 397.363281 0 256 0 Z M 181.609375 387 L 119.261719 387 L 119.261719 199.425781 L 181.609375 199.425781 Z M 150.4375 173.8125 L 150.03125 173.8125 C 129.109375 173.8125 115.578125 159.410156 115.578125 141.410156 C 115.578125 123.003906 129.523438 109 150.851562 109 C 172.179688 109 185.304688 123.003906 185.710938 141.410156 C 185.710938 159.410156 172.179688 173.8125 150.4375 173.8125 Z M 406.421875 387 L 344.082031 387 L 344.082031 286.652344 C 344.082031 261.433594 335.054688 244.234375 312.496094 244.234375 C 295.273438 244.234375 285.015625 255.835938 280.507812 267.035156 C 278.859375 271.042969 278.457031 276.644531 278.457031 282.25 L 278.457031 387 L 216.113281 387 C 216.113281 387 216.929688 217.023438 216.113281 199.425781 L 278.457031 199.425781 L 278.457031 225.984375 C 286.742188 213.203125 301.566406 195.023438 334.644531 195.023438 C 375.664062 195.023438 406.421875 221.832031 406.421875 279.445312 Z M 406.421875 387 "/>
</g>
</svg>
